<svg width="17" height="17" viewBox="0 0 17 17" fill="none" xmlns="http://www.w3.org/2000/svg">
<path d="M2.61435 4.45748C3.60815 3.38011 5.11194 2.83398 7.08323 2.83398H7.79156V4.83078L7.22206 4.94482C6.25165 5.1389 5.57661 5.52069 5.21536 6.08098C5.02686 6.38283 4.91996 6.72843 4.90511 7.08398H7.08323C7.27109 7.08398 7.45126 7.15861 7.5841 7.29145C7.71694 7.42429 7.79156 7.60446 7.79156 7.79232V12.7507C7.79156 13.5319 7.15619 14.1673 6.3749 14.1673H2.1249C1.93703 14.1673 1.75687 14.0927 1.62403 13.9599C1.49119 13.827 1.41656 13.6468 1.41656 13.459V9.91732L1.41869 7.84969C1.41231 7.77107 1.27773 5.90815 2.61435 4.45748ZM14.1666 14.1673H9.91656C9.7287 14.1673 9.54853 14.0927 9.4157 13.9599C9.28286 13.827 9.20823 13.6468 9.20823 13.459V9.91732L9.21036 7.84969C9.20398 7.77107 9.0694 5.90815 10.406 4.45748C11.3998 3.38011 12.9036 2.83398 14.8749 2.83398H15.5832V4.83078L15.0137 4.94482C14.0433 5.1389 13.3683 5.52069 13.007 6.08098C12.8185 6.38283 12.7116 6.72843 12.6968 7.08398H14.8749C15.0628 7.08398 15.2429 7.15861 15.3758 7.29145C15.5086 7.42429 15.5832 7.60446 15.5832 7.79232V12.7507C15.5832 13.5319 14.9479 14.1673 14.1666 14.1673Z" fill="#0A72AD"/>
</svg>
