<svg width="25" height="17" viewBox="0 0 25 17" fill="none" xmlns="http://www.w3.org/2000/svg">
<path d="M1.16797 8.38281C1.19489 8.11255 1.31505 7.85878 1.50879 7.66504L1.59473 7.58594C1.80494 7.41367 2.06959 7.31836 2.34375 7.31836L19.8027 7.31836L15.5703 3.08594L15.4922 2.99902C15.3198 2.78864 15.2236 2.52439 15.2236 2.25C15.2236 1.93645 15.3486 1.63578 15.5703 1.41406C15.792 1.19235 16.0927 1.06738 16.4062 1.06738C16.6806 1.06738 16.9449 1.16352 17.1553 1.33594L17.2422 1.41406L23.4922 7.66406C23.5746 7.74634 23.6445 7.84008 23.6992 7.94238L23.749 8.04688C23.8086 8.19038 23.8389 8.34462 23.8389 8.5C23.8389 8.65537 23.8086 8.80962 23.749 8.95313C23.7044 9.06055 23.6439 9.16046 23.5703 9.25L23.4922 9.33594L17.2422 15.5859C17.0205 15.8076 16.7198 15.9326 16.4062 15.9326L16.2891 15.9268C16.0185 15.8998 15.7642 15.7799 15.5703 15.5859L15.4922 15.499C15.3198 15.2886 15.2236 15.0244 15.2236 14.75C15.2236 14.4365 15.3486 14.1358 15.5703 13.9141L19.8027 9.68164H2.34375C2.03046 9.68164 1.73032 9.55648 1.50879 9.33496L1.42969 9.24902C1.25742 9.03881 1.16211 8.77416 1.16211 8.5L1.16797 8.38281Z" fill="white" stroke="white" stroke-width="0.8"/>
</svg>
